PathFileType	4	(X/Y/Z)	C:\Users\dbl\Desktop\20210112(1)\20210112\bx_y_5_501.trc
DataRate	CameraRate	NumFrames	NumMarkers	Units	OrigDataRate	OrigDataStartFrame	OrigNumFrames
50.00	50.00	       4	43	mm	50.00	455	       519
Frame#	Time	Top.Head			R.Acromium			L.Acromium			Sternum			R.ASIS			L.ASIS			V.Sacral			R.Thigh.Upper			R.Thigh.Front			R.Thigh.Rear			R.Knee.Lat			R.Knee.Med			R.Shank.Upper			R.Shank.Front			R.Shank.Rear			R.Ankle.Lat			R.Midfoot.Lat			R.Toe.Lat			R.Toe.Tip			R.Toe.Med			R.Ankle.Med			R.Midfoot.Sup			R.Heel			L.Thigh.Upper			L.Thigh.Front			L.Thigh.Rear			L.Knee.Lat			L.Knee.Med			L.Shank.Upper			L.Shank.Front			L.Shank.Rear			L.Ankle.Lat			L.Midfoot.Lat			L.Toe.Lat			L.Toe.Tip			L.Toe.Med			L.Ankle.Med			L.Midfoot.Sup			L.Heel			origin1 front left			origin2 front right			origin 3 back right			origin 4 back leftt			
		X1	Y1	Z1	X2	Y2	Z2	X3	Y3	Z3	X4	Y4	Z4	X5	Y5	Z5	X6	Y6	Z6	X7	Y7	Z7	X8	Y8	Z8	X9	Y9	Z9	X10	Y10	Z10	X11	Y11	Z11	X12	Y12	Z12	X13	Y13	Z13	X14	Y14	Z14	X15	Y15	Z15	X16	Y16	Z16	X17	Y17	Z17	X18	Y18	Z18	X19	Y19	Z19	X20	Y20	Z20	X21	Y21	Z21	X22	Y22	Z22	X23	Y23	Z23	X24	Y24	Z24	X25	Y25	Z25	X26	Y26	Z26	X27	Y27	Z27	X28	Y28	Z28	X29	Y29	Z29	X30	Y30	Z30	X31	Y31	Z31	X32	Y32	Z32	X33	Y33	Z33	X34	Y34	Z34	X35	Y35	Z35	X36	Y36	Z36	X37	Y37	Z37	X38	Y38	Z38	X39	Y39	Z39	X40	Y40	Z40	X41	Y41	Z41	X42	Y42	Z42	X43	Y43	Z43	

455	9.080	-727.40002	90.55618	1850.28833	-699.70416	-67.59420	1561.90210	-701.21075	287.17526	1551.84863	-609.66150	102.96599	1440.85547	-595.34003	-7.42709	1050.77222	-574.45856	218.97806	1070.63293	-785.52759	106.46283	1035.80505	-626.29346	-67.87952	863.85803	-584.55170	1.48702	805.72607	-677.67267	-44.42270	707.68402	-698.50012	-24.22257	614.56891	-690.19635	84.72065	578.96326	-712.90796	-21.61566	569.06586	-665.71741	22.29520	521.36377	-762.55078	-31.03613	490.03101	-767.62726	-4.06213	207.51198	-665.28143	-67.21490	162.97528	-624.71454	-77.82100	159.69334	-560.50262	-41.55458	162.63034	-602.65088	19.02067	165.92166	-716.21429	79.16953	215.54147	-675.11615	54.86303	157.00720	-794.32867	56.89009	174.84322	-626.15460	279.99274	874.66779	-576.18707	210.93266	821.43933	-678.32990	274.53766	745.97400	-714.14740	252.26051	637.73615	-687.42871	143.31677	575.01428	-721.99365	246.88684	575.75385	-671.94495	204.41002	531.88403	-767.18579	256.24039	503.95978	-771.33051	222.94370	205.04939	-666.52002	299.19162	159.81036	-629.37689	307.31384	161.54124	-560.84973	262.27481	165.24301	-594.45709	223.15269	173.03941	-711.07025	152.27986	216.37875	-675.26855	173.39034	157.12352	-796.03882	172.28125	183.91339	-528.13971	304.09741	146.41176	-517.46478	-72.65277	142.64212	-875.82281	-78.94562	141.20253	-882.69348	296.08649	144.53629	
456	9.100	-726.56427	90.76144	1850.35791	-699.58984	-67.45342	1561.87561	-701.17468	287.30862	1551.72461	-609.67102	103.04958	1440.77356	-595.63898	-7.35701	1050.73486	-574.62964	218.97197	1070.52759	-785.84064	106.53967	1035.80261	-626.95325	-67.65330	863.56012	-585.08368	1.49119	805.62720	-678.22949	-44.61332	707.66882	-699.10901	-24.37336	614.67767	-690.85974	84.78062	578.92218	-713.54382	-21.69584	568.99927	-666.27252	22.27214	521.41229	-762.95691	-31.19991	490.04617	-767.68353	-4.08793	207.51979	-665.30566	-67.25154	162.97739	-624.74768	-77.79125	159.63490	-560.52753	-41.59529	162.60304	-602.65442	19.00593	165.92822	-716.24634	79.10600	215.57390	-675.10291	54.86622	157.09790	-794.31793	56.83199	174.85048	-626.46118	280.07172	874.61182	-576.36499	211.02002	821.37213	-678.58557	274.64551	745.95496	-714.44232	252.26782	637.65045	-687.75836	143.43398	574.76501	-722.17273	246.99568	575.75897	-672.13617	204.46936	531.81848	-767.38928	256.27075	503.91769	-771.30225	222.93604	205.00992	-666.52661	299.17661	159.81221	-629.34979	307.31345	161.54222	-560.85052	262.26508	165.25528	-594.44934	223.17722	173.07748	-711.09180	152.30484	216.34926	-675.30176	173.43138	157.07458	-796.02875	172.30705	183.89198	-528.10327	304.05270	146.41835	-517.53839	-72.62366	142.50810	-875.86597	-78.94670	141.17819	-882.71802	296.10196	144.53281	
457	9.120	-725.68384	91.08074	1850.49133	-699.51025	-67.32130	1561.87671	-701.16736	287.42148	1551.59338	-609.69238	103.09821	1440.70410	-595.86029	-7.27056	1050.71509	-574.87109	219.03601	1070.39893	-786.08105	106.62594	1035.79504	-627.64539	-67.43520	863.26361	-585.53491	1.54537	805.55560	-678.71344	-44.78522	707.61456	-699.71625	-24.45994	614.72070	-691.40356	84.74285	578.83728	-714.15240	-21.66619	568.88208	-666.74811	22.23346	521.44519	-763.35321	-31.33959	490.07904	-767.73315	-4.11779	207.53944	-665.33826	-67.26531	162.97879	-624.75763	-77.78826	159.61043	-560.56000	-41.62062	162.57738	-602.64929	18.97955	165.96024	-716.32391	79.00526	215.57582	-675.08362	54.86222	157.15501	-794.30511	56.77314	174.87325	-626.81714	280.16791	874.52289	-576.47919	211.14102	821.32312	-678.88214	274.72467	745.87817	-714.71973	252.32307	637.63928	-688.12604	143.52914	574.49731	-722.39178	247.09734	575.76105	-672.25616	204.54736	531.80371	-767.55450	256.31549	503.88370	-771.29944	222.90433	204.96873	-666.52802	299.18008	159.81779	-629.34381	307.29962	161.54765	-560.84869	262.27222	165.25436	-594.44702	223.17010	173.09167	-711.09521	152.31363	216.34161	-675.33020	173.47647	156.98242	-796.02643	172.32182	183.89198	-528.06769	304.03036	146.42363	-517.60925	-72.62640	142.37469	-875.87988	-78.97193	141.14343	-882.70288	296.10403	144.52835	
458	9.140	-724.74457	91.52251	1850.65991	-699.45294	-67.16468	1561.91162	-701.19574	287.54886	1551.46619	-609.75568	103.12026	1440.62793	-596.04730	-7.17241	1050.73035	-575.16968	219.13495	1070.27759	-786.25549	106.71137	1035.80029	-628.36700	-67.22555	862.96924	-585.92139	1.64065	805.45636	-679.10620	-44.87641	707.49261	-700.22211	-24.44201	614.69659	-691.80341	84.62212	578.72760	-714.71985	-21.54579	568.74860	-667.07916	22.20831	521.49231	-763.74121	-31.39075	490.07297	-767.76300	-4.14271	207.54759	-665.35913	-67.24960	162.98604	-624.74915	-77.80207	159.61902	-560.60034	-41.62249	162.58209	-602.63965	18.96626	166.00372	-716.42438	78.89851	215.57500	-675.07141	54.85823	157.17506	-794.31610	56.74706	174.89014	-627.16095	280.29193	874.47693	-576.60706	211.25247	821.29944	-679.21161	274.80112	745.78625	-714.99127	252.47864	637.71863	-688.43140	143.57979	574.30396	-722.64612	247.14629	575.72021	-672.37451	204.64767	531.85480	-767.68353	256.38089	503.84848	-771.33063	222.87000	204.94553	-666.52496	299.19974	159.82048	-629.36133	307.28241	161.55225	-560.84747	262.28131	165.23927	-594.47131	223.14000	173.09450	-711.08795	152.30191	216.35364	-675.35455	173.47791	156.91708	-796.03595	172.32689	183.90147	-528.04822	304.03998	146.42418	-517.64990	-72.66825	142.31717	-875.88312	-79.00428	141.10643	-882.66785	296.10730	144.52837	
